<svg width="108" height="107" fill="none" xmlns="http://www.w3.org/2000/svg"><path d="M91.03 28.129V15.255a26.582 26.582 0 00-2.047-10.242A6.6 6.6 0 0082.846 1H25.683a6.587 6.587 0 00-6.13 4.013A26.47 26.47 0 0017.5 15.255V28.13a1.954 1.954 0 001.954 1.954h1.258c-.521 21.858 2.665 47.626 3.036 50.544l-4.847 5.695a5.778 5.778 0 00-1.375 3.733v5.935a5.76 5.76 0 00.723 2.815l1.381 2.475a4.506 4.506 0 003.91 2.307h3.863v.912a1.626 1.626 0 001.629 1.628h6.156a1.627 1.627 0 001.63-1.628v-.88H71.73v.932a1.617 1.617 0 001.61 1.609h6.183a1.619 1.619 0 001.609-1.609v-.932h3.857a4.505 4.505 0 003.909-2.306l1.38-2.476c.478-.861.73-1.83.73-2.815v-5.935a5.805 5.805 0 00-1.368-3.733l-4.853-5.72c.371-2.919 3.557-28.666 3.036-50.544h1.257a1.954 1.954 0 001.948-1.961zm-69.06 1.954h7.166c.954.044 1.858.44 2.534 1.115l3.707 3.707a5.11 5.11 0 003.636 1.505h30.49a5.103 5.103 0 003.63-1.505l3.713-3.707a3.825 3.825 0 012.528-1.115h7.166C80.612 60.51 62.708 76.751 33.957 80.152H24.98c-.508-4.06-3.472-28.927-2.99-50.082l-.02.013z" fill="#F8E4BE"/><path d="M73.627 58.359c6-7.903 9.402-17.2 11.421-26.83a97.583 97.583 0 01-5.081 14.523c-4.32 9.551-11.076 17.897-19.943 23.565-8.274 5.297-17.734 7.91-27.363 9.486a74.723 74.723 0 0015.167-2.965c10.228-3.25 19.284-9.192 25.8-17.78zm-52.14-27.181l7.72.325-7.72.326v-.651zm.118 2.495l7.726.326-7.726.325v-.651zm.124 2.496l7.72.325-7.72.326v-.651zm.123 2.495l7.72.326-7.72.325v-.651zm.118 2.495l7.72.326-7.72.325v-.651zm.123 2.495l7.72.326-7.72.326v-.652zm.117 2.496l7.727.325-7.727.326v-.652zm.124 2.495l7.72.325-7.72.326v-.651zm.117 2.495l7.727.326-7.727.326v-.652zm.124 2.495l7.72.326-7.72.326v-.652zm.117 2.495l7.727.326-7.727.326v-.651zm.124 2.496l7.72.326-7.72.325v-.651zm.124 2.495l7.72.326-7.72.326v-.652zm.118 2.496l7.727.326-7.727.325v-.651zm.123 2.495l7.72.326-7.72.325v-.651zm.117 2.495l7.727.326-7.727.325v-.651zm.124 2.495l7.72.326-7.72.326v-.652zm.118 2.495l7.726.326-7.727.326v-.652zm.123 2.496l7.72.325-7.72.326v-.651zm.117 2.495l7.727.326-7.727.326v-.652z" fill="#F8E4BE"/><path d="M42.44 36.396v2.476a1.63 1.63 0 001.622 1.622h.052L21.24 41.986c-1.668.235-2.815 2.795-2.404 5.695.41 2.899 2.085 5.068 3.752 4.827l26.145-5.036a7.367 7.367 0 002.515.593v1.381a.977.977 0 00.977.977h.313v.789a.13.13 0 00.13.13h3.193a.13.13 0 00.13-.13v-.789h.32a.977.977 0 00.977-.977v-1.381a7.616 7.616 0 007.166-7.597h.046a1.622 1.622 0 001.622-1.622V36.37l-23.682.026z" fill="#F8E4BE"/><path d="M88.612 87.82L83.4 81.54H25.103l-5.212 6.28a.318.318 0 00.104.495c1.42.71 8.105 3.069 34.25 3.069s32.836-2.359 34.256-3.069a.32.32 0 00.111-.495z" fill="#54372B"/><path d="M81.745 82.12s.365.318.86.853c.495.534 1.127 1.303 1.72 2.052.593.75 1.153 1.59 1.544 2.221.391.633.652 1.095.652 1.095s-.372-.32-.873-.847a26.42 26.42 0 01-1.727-2.046 28.705 28.705 0 01-1.537-2.234c-.391-.639-.639-1.095-.639-1.095zm-54.961 0s-.365.318-.86.853c-.495.534-1.12 1.303-1.72 2.052-.6.75-1.153 1.59-1.544 2.221-.225.354-.432.72-.619 1.095 0 0 .371-.32.866-.847a26.36 26.36 0 003.265-4.28c.39-.62.612-1.095.612-1.095zm56.258 5.973a32.499 32.499 0 00-1.544-2.521 29.62 29.62 0 00-1.753-2.332c-.508-.606-.892-.984-.892-.984s.215.521.599 1.238c.384.716.938 1.641 1.53 2.528.55.806 1.14 1.585 1.767 2.332.281.34.581.664.899.97 0 0-.215-.514-.606-1.23zm-4.704-2.371a32.22 32.22 0 00-1.564-2.358c-.456-.62-.808-.997-.808-.997.146.419.313.83.502 1.231.39.867.825 1.713 1.303 2.534a25.022 25.022 0 001.57 2.359c.255.345.529.676.821.99-.15-.417-.322-.826-.515-1.225-.3-.723-.808-1.641-1.31-2.534zm-3.167.202a28.263 28.263 0 00-1.374-2.495 12.018 12.018 0 00-.723-1.062c.112.44.247.876.404 1.303.273.749.651 1.72 1.14 2.658.414.856.875 1.69 1.38 2.495.228.365.473.717.737 1.056 0 0-.137-.535-.417-1.303a27.503 27.503 0 00-1.147-2.652zm-3.159.104a28.727 28.727 0 00-1.186-2.52 11.75 11.75 0 00-.652-1.076c.082.44.186.875.313 1.303a27.253 27.253 0 002.13 5.173c.198.372.415.733.652 1.082a12.657 12.657 0 00-.326-1.27 27.455 27.455 0 00-.931-2.692zm-3.167.137a26.136 26.136 0 00-.996-2.534 11.785 11.785 0 00-.56-1.102c.05.424.124.843.22 1.258.4 1.792.983 3.54 1.74 5.212.171.377.363.745.574 1.101a12.87 12.87 0 00-.228-1.264 26.447 26.447 0 00-.75-2.671zm-3.159.098a26.2 26.2 0 00-.815-2.56c-.138-.38-.297-.752-.475-1.115.022.417.066.832.13 1.245.135.894.315 1.782.54 2.658.224.865.496 1.718.815 2.554.14.383.303.757.489 1.12 0 0 0-.508-.137-1.25a26.883 26.883 0 00-.547-2.652zm-3.134.084c-.183-.95-.41-1.889-.652-2.605-.114-.387-.25-.768-.404-1.14 0 0 0 .501.04 1.237a23.667 23.667 0 001.003 5.251c.114.387.249.768.404 1.14.009-.413-.004-.826-.04-1.237-.084-.737-.214-1.662-.351-2.645zm-3.629-2.527a10.53 10.53 0 00-.32-1.16 11.74 11.74 0 00-.045 1.218c.007 1.753.202 3.5.58 5.212.08.393.185.78.313 1.16.04-.405.058-.812.052-1.218a25.535 25.535 0 00-.157-2.639 27.224 27.224 0 00-.423-2.573zm-2.984.032c-.056-.397-.132-.79-.228-1.18 0 0-.085.483-.137 1.2a24.054 24.054 0 00-.045 2.606c.039.95.13 1.902.234 2.606.056.397.134.79.235 1.179.068-.397.113-.797.136-1.199.06-.867.073-1.737.04-2.606a24.616 24.616 0 00-.235-2.606zm-3.12-1.179c-.096.389-.172.782-.229 1.18a26.49 26.49 0 00-.234 2.605 25.98 25.98 0 00.039 2.606c.027.402.075.802.143 1.199.096-.39.172-.783.228-1.18.125-.863.203-1.733.235-2.605.03-.87.018-1.739-.04-2.606a11.685 11.685 0 00-.142-1.2zm-3.206 1.147a25.507 25.507 0 00-.586 5.245c0 .722.052 1.218.052 1.218.128-.38.234-.768.319-1.16.189-.86.332-1.73.43-2.606.097-.951.15-1.909.15-2.606 0-.697-.053-1.218-.053-1.218-.122.37-.226.746-.312 1.127zm-2.978-.053a25.781 25.781 0 00-.97 5.212c-.035.412-.048.825-.04 1.238.155-.372.29-.753.404-1.14.209-.69.437-1.629.652-2.606.215-.977.293-1.915.345-2.645.035-.412.048-.825.04-1.238 0 0-.222.489-.43 1.18zm-3.785 2.496a27.1 27.1 0 00-.554 2.651 12.94 12.94 0 00-.13 1.251c.183-.364.346-.739.489-1.12.316-.836.586-1.689.808-2.554.23-.876.413-1.763.547-2.659.064-.412.108-.827.13-1.244-.18.363-.34.735-.482 1.114a26.36 26.36 0 00-.808 2.56zm-3.166-.098a28.314 28.314 0 00-.75 2.658c-.097.417-.173.84-.227 1.264.21-.356.402-.724.573-1.101.38-.826.715-1.672 1.003-2.534.313-.952.58-1.916.743-2.665.163-.75.221-1.258.221-1.258s-.254.424-.566 1.102a26.162 26.162 0 00-.997 2.534zm-3.192-.137a29.303 29.303 0 00-.945 2.658c-.222.75-.32 1.27-.32 1.27.239-.347.456-.708.652-1.08.448-.814.846-1.654 1.192-2.515.362-.869.675-1.756.939-2.659.221-.749.319-1.303.319-1.303s-.287.417-.652 1.082a26.84 26.84 0 00-1.185 2.547zm-1.76-2.606c-.41.652-.912 1.557-1.374 2.495a27.515 27.515 0 00-1.147 2.659 16.608 16.608 0 00-.417 1.303s.326-.404.743-1.056a27.29 27.29 0 001.381-2.495c.424-.866.802-1.753 1.134-2.658.273-.75.41-1.303.41-1.303-.26.34-.504.691-.73 1.055zm-2.15-1.055c-.286.318-.556.65-.808.996a28.49 28.49 0 00-1.563 2.359 29.465 29.465 0 00-1.349 2.534 14.55 14.55 0 00-.508 1.225c.292-.314.566-.645.821-.99a26.388 26.388 0 001.57-2.359c.488-.821.934-1.667 1.336-2.534.188-.401.356-.812.501-1.231zm-2.905-.111s-.378.371-.886.984a32.325 32.325 0 00-1.753 2.332c-.6.88-1.16 1.805-1.544 2.521-.384.717-.612 1.232-.612 1.232.318-.308.62-.632.905-.971a29.208 29.208 0 001.76-2.332 28.517 28.517 0 001.53-2.528c.222-.402.422-.815.6-1.238z" fill="#F8E4BE"/><path d="M73.34 105.613l7.278-1.512v.417a1.095 1.095 0 01-1.094 1.095H73.34zm-44.334 0l7.277-1.512v.417a1.095 1.095 0 01-1.095 1.095h-6.182zm57.652-75.666V31.1c0 .749.045 1.85.052 3.257.006 1.407 0 3.108 0 5.062 0 1.955-.098 4.15-.202 6.555a309.093 309.093 0 01-.443 7.746 393.34 393.34 0 01-.69 8.633c-.275 2.99-.58 6.085-.926 9.218-.183 1.564-.365 3.147-.547 4.73-.359 2.965-.235 3.694-.886 3.727l-36.29.13h-16.02l16.014-.202c44.641-.384 33.305-.286 36.283-.306a.124.124 0 00.117-.117c.143-1.095.065-.47.417-3.258.195-1.58.386-3.155.573-4.723.365-3.134.69-6.216.97-9.206.281-2.99.529-5.864.737-8.626.209-2.762.358-5.342.482-7.74.124-2.397.215-4.6.267-6.547.052-1.949.078-3.649.111-5.05.033-1.4 0-2.508 0-3.257 0-.75-.02-1.18-.02-1.18zM24.875 46.84a7.166 7.166 0 01-.573 4.287c.614-.834.933-1.85.905-2.886a9.303 9.303 0 00-.651-3.909 4.887 4.887 0 00-1.824-2.391l-1.486.098c1.662-.267 3.219 1.909 3.63 4.801zm39.547-6.346H58.44l5.961.391c.007-.13.02-.26.02-.39zm-.991 1.01a6.06 6.06 0 01-6.678 5.603 8.542 8.542 0 004.294-1.83 8.634 8.634 0 002.384-3.773zm2.659-4.514v-.593H52.18l13.91.592zm21.5-30.83s.22.41.566 1.212a19.34 19.34 0 011.088 3.629c.172.885.294 1.779.365 2.677.085.984.078 2.053.085 3.18v10.267c.022.219.004.44-.053.652a.86.86 0 01-.86.567h-7.335a14.985 14.985 0 00-2.43.104 6.05 6.05 0 00-2.248.893c-.344.229-.665.49-.958.781l-.925.913-1.87 1.843-.951.938a3.25 3.25 0 01-1.238.75 4.17 4.17 0 01-1.42.162H65.34l-11.075.033-11.076-.033h-4.092a4.133 4.133 0 01-1.413-.162 3.259 3.259 0 01-1.245-.75l-.944-.938-1.877-1.843a13.729 13.729 0 00-1.883-1.694 6.02 6.02 0 00-2.24-.893c-.809-.1-1.624-.135-2.437-.104h-7.056c-.219.02-.44.003-.652-.052a.859.859 0 01-.508-.515.951.951 0 01-.052-.345V16.89c0-1.127 0-2.195.078-3.18a23.7 23.7 0 01.372-2.677 19.318 19.318 0 011.088-3.629c.338-.801.56-1.212.56-1.212l-.104.326c-.072.209-.176.528-.307.945a31.448 31.448 0 00-.905 3.629c-.165.874-.28 1.758-.345 2.645-.079.97-.066 2.02-.066 3.153v10.502a.544.544 0 000 .196.397.397 0 00.255.248c.157.026.318.026.475 0h7.069a15.098 15.098 0 012.521.097c.87.148 1.702.472 2.443.951.37.25.716.53 1.036.84l1.043.926c.651.613 1.25 1.218 1.883 1.837l.95.925c.292.282.644.491 1.03.613.403.12.825.165 1.245.13h30.314c.42.035.842-.009 1.245-.13.388-.12.743-.33 1.035-.612l.952-.926 1.883-1.837.931-.905a7.201 7.201 0 011.036-.84 6.463 6.463 0 012.443-.952 15.032 15.032 0 012.515-.098h7.069c.16.023.322.023.482 0a.403.403 0 00.248-.247c.034-.154.045-.312.032-.47V16.871c0-1.134 0-2.183-.059-3.154-.065-.887-.18-1.77-.345-2.645a31.221 31.221 0 00-.912-3.629c-.13-.417-.228-.736-.306-.944l-.085-.34zm1.302 91.862s-.091.274-.306.77c-.307.72-.664 1.419-1.068 2.09a3.109 3.109 0 01-2.359 1.304h-5.713c-6.867.045-16.021 0-25.181 0H23.383a2.987 2.987 0 01-.99-.222 3.08 3.08 0 01-1.375-1.088 17.121 17.121 0 01-1.381-2.86s.182.221.495.651c.313.43.73 1.134 1.225 1.955.3.419.713.742 1.192.932.271.104.557.165.847.182h5.688c6.867-.046 16.027 0 25.18 0h30.869c.29-.016.576-.077.847-.182a2.68 2.68 0 001.192-.932c.502-.821.919-1.525 1.225-1.955.306-.43.495-.645.495-.645zM23.553 2.446l9.596-.15 9.838-.078 11.278-.032 11.277.032 9.845.079 9.596.15-9.596.143-9.845.084-11.277.033-11.258-.04-9.838-.077-9.616-.144zm65.711 87.302l-.183.091a5.535 5.535 0 01-.534.235c-.697.28-1.41.515-2.137.704-.932.247-2.078.501-3.4.736a73.907 73.907 0 01-4.477.651c-1.648.19-3.433.359-5.323.515l-2.912.202-3.042.15c-2.072.078-4.209.156-6.379.195-2.17.04-4.378.059-6.586.078-2.209.02-4.404 0-6.58-.078-2.177-.078-4.313-.117-6.379-.195l-3.042-.15-2.913-.202c-1.896-.15-3.68-.326-5.322-.515a69.753 69.753 0 01-4.476-.651 45.99 45.99 0 01-3.408-.736 19.029 19.029 0 01-2.13-.697 7.783 7.783 0 01-.54-.242l-.183-.09.189.078c.176.085.36.157.547.215.704.246 1.422.45 2.15.612.938.215 2.085.43 3.414.651 1.329.222 2.834.359 4.476.528 1.641.17 3.427.293 5.316.404 1.89.11 3.909.183 5.942.267 2.032.085 4.196.124 6.365.15 2.17.026 4.378 0 6.574.04 2.195.038 4.41 0 6.573-.04 2.163-.04 4.307-.085 6.366-.15l3.042-.124 2.906-.143c1.89-.11 3.674-.247 5.316-.404a89.409 89.409 0 004.476-.528c1.33-.195 2.476-.41 3.414-.651a19.062 19.062 0 002.15-.612c.187-.06.37-.132.547-.216l.183-.078zM24.406 43.185s1.531-.215 3.838-.469c1.146-.11 2.488-.273 3.909-.404l4.515-.404 4.521-.339c1.44-.11 2.795-.175 3.948-.247 2.313-.13 3.857-.176 3.857-.176s-1.53.215-3.83.47c-1.154.116-2.496.273-3.91.403l-4.521.404-4.522.339c-1.44.11-2.788.176-3.948.247-2.313.13-3.857.176-3.857.176z" fill="#54372B"/><path d="M60.285 14.278a8.509 8.509 0 10-12.027 12.04 8.509 8.509 0 0012.026-12.04zm-11.578.462a7.864 7.864 0 0110.633-.443L48.264 25.373a7.857 7.857 0 01.437-10.633h.006zm11.121 11.115a7.864 7.864 0 01-10.639.437l11.076-11.076a7.857 7.857 0 01-.437 10.633v.006z" fill="#54372B"/><path d="M51.476 21.281l1.89-1.863 1.863-1.89 1.602-1.667c.939-.984 1.545-1.655 1.545-1.655s-.652.606-1.662 1.538l-1.668 1.609-1.889 1.863-1.863 1.89-1.603 1.667c-.938.984-1.544 1.655-1.544 1.655s.651-.606 1.661-1.537l1.668-1.61zm7.225-3.576l-1.668 1.602-1.89 1.864-1.862 1.889-1.61 1.674c-.931.978-1.537 1.655-1.537 1.655l1.655-1.544 1.641-1.603 1.89-1.863 1.863-1.89 1.61-1.667c.931-.984 1.537-1.655 1.537-1.655s-.645.606-1.629 1.538zm5.609-3.623c-2.423-3.186-5.94-5.284-10.032-5.284s-7.623 2.092-10.06 5.284a11.474 11.474 0 0120.093 0zm19.82-3.368H69.158a.847.847 0 00-.847.847v6.984c0 .468.38.847.847.847H84.13a.847.847 0 00.847-.847v-6.984a.847.847 0 00-.847-.847z" fill="#54372B"/><path d="M84.338 11.548v7.01a.19.19 0 01-.115.18.19.19 0 01-.074.015H69.165c6.977-1.27 12.463-3.426 15.173-7.205z" fill="#F8E4BE"/><path d="M70.585 22.676a1.07 1.07 0 11-2.139 0 1.07 1.07 0 012.139 0zm2.495 1.061a1.062 1.062 0 100-2.123 1.062 1.062 0 000 2.123zm3.564 0a1.062 1.062 0 100-2.123 1.062 1.062 0 000 2.123zm3.564 0a1.062 1.062 0 100-2.123 1.062 1.062 0 000 2.123zm3.57 0a1.062 1.062 0 100-2.123 1.062 1.062 0 000 2.123zM28.178 12.2h3.153a.815.815 0 01.815.814v8.424a.815.815 0 01-.815.814h-3.153a.814.814 0 01-.814-.814v-8.424a.821.821 0 01.814-.814z" fill="#54372B"/><path d="M31.331 12.838h-3.153a.176.176 0 00-.176.176v8.424c0 .097.08.176.176.176h3.153a.176.176 0 00.176-.176v-8.424a.176.176 0 00-.176-.176z" fill="#F8E4BE"/><path d="M28.321 21.294c1.675-.495 2.56-2.215 2.867-4.84v4.84H28.32zm1.434-6.977a.326.326 0 100-.652.326.326 0 000 .652zm5.583.006a1.062 1.062 0 100-2.124 1.062 1.062 0 000 2.124zm0 1.837a1.069 1.069 0 10.983.66 1.063 1.063 0 00-.983-.66zm0 3.968A1.068 1.068 0 1036.4 21.19a1.062 1.062 0 00-1.062-1.062zm14.301 77.08a.65.65 0 01-.144.209c.062.06.113.13.15.208a.614.614 0 010 .508.691.691 0 01-.202.235.932.932 0 01-.286.156.996.996 0 01-.352.059h-1.616v-.886h-.273v-.554h.286v-.892h1.596a.978.978 0 01.652.208.651.651 0 01.267.515.587.587 0 01-.078.234zm-.704-.352a.235.235 0 00-.15-.052h-.905v.34h.905a.234.234 0 00.15-.053.142.142 0 00.045-.183.143.143 0 00-.045-.052zm0 .887a.228.228 0 00-.15-.046h-.905v.332h.905a.234.234 0 00.15-.052.142.142 0 00.045-.183.142.142 0 00-.045-.051zm3.845-.143a1.07 1.07 0 01-.3.318c.085.093.155.198.208.313.046.112.07.231.072.352h-.691a.423.423 0 00-.065-.235.599.599 0 00-.19-.195h-.8v.423h-.691v-.423h-.463v-.554h.463v-1.355h1.368c.307-.01.606.09.847.28a.84.84 0 01.352.652.879.879 0 01-.11.423zm-.737-.652a.58.58 0 00-.358-.118h-.652v.802h.652a.58.58 0 00.358-.118.345.345 0 00.143-.286.352.352 0 00-.136-.306l-.007.026zm3.003 1.635v-.424h-.964v.424h-.697v-.424h-.3v-.553h.3v-.47a.808.808 0 01.345-.651 1.382 1.382 0 011.655-.033.826.826 0 01.345.652v1.446l-.684.033zm0-1.095v-.352a.354.354 0 00-.136-.273.54.54 0 00-.346-.117.528.528 0 00-.345.117.358.358 0 00-.143.273v.47h.97v-.118zm3.004 1.095v-1.779h-.775a.704.704 0 00-.437.143.424.424 0 00-.182.346v1.303h-.697v-2.333h.73v.124c.093-.04.192-.072.292-.091.108-.021.217-.032.326-.033h.814c.167-.003.33.05.463.15a.476.476 0 01.189.372v1.81l-.723-.012zm3.342-.176a.71.71 0 01-.463.156h-1.954v-2.332h1.954a.703.703 0 01.463.15.473.473 0 01.189.378v1.303a.475.475 0 01-.189.345zm-.502-1.622h-1.218v1.225h1.218v-1.225z" fill="#54372B"/></svg>