<svg width="108" height="107" fill="none" xmlns="http://www.w3.org/2000/svg"><path d="M103.007 40.053a35.8 35.8 0 00-.401-10.8 18.626 18.626 0 00-19.904-14.844 35.78 35.78 0 00-10.461 2.67c-6.758 2.823-13.254 8.455-18.593 15.583-5.338 7.129-8.933 14.951-9.751 22.25a27.783 27.783 0 00-.17 4.057 21.6 21.6 0 0027.048 20.274 29.975 29.975 0 003.903-1.342c6.774-2.824 13.254-8.47 18.593-15.6 5.338-7.128 8.918-14.95 9.736-22.248z" fill="#F8E4BE"/><path d="M99.103 24.47c4.151 8.578 2.978 18.654-.895 27.093a51.92 51.92 0 01-19.98 22.913 26.09 26.09 0 01-12.7 3.826c8.796-.524 16.556-6.465 22.25-12.76 6.742-7.452 12.421-16.972 13.285-27.202a29.152 29.152 0 00-1.96-13.87zm-5.508-.078l-.571.494c-.37.34-.91.848-1.543 1.543a57.568 57.568 0 00-4.629 6.171c-.88 1.327-1.96 2.716-2.931 4.228a24.69 24.69 0 00-2.423 5.107 25.336 25.336 0 00-1.157 5.94 32.396 32.396 0 01-1.188 6.327 16.031 16.031 0 01-3.178 5.662 35.663 35.663 0 01-4.63 4.259c-1.542 1.265-3.085 2.36-4.628 3.41a50.21 50.21 0 01-4.351 2.761 26.383 26.383 0 01-7.221 2.808c-.91.201-1.636.294-2.13.37l-.77.078.755-.124a24.736 24.736 0 002.114-.478 28.221 28.221 0 006.99-3.086 46.573 46.573 0 004.227-2.916 82.556 82.556 0 004.629-3.487 36.093 36.093 0 004.397-4.181 15.291 15.291 0 002.947-5.385 33.04 33.04 0 001.22-6.172 26.04 26.04 0 011.25-6.171 22.617 22.617 0 012.637-5.2c1.05-1.543 2.13-2.855 3.086-4.166a50.544 50.544 0 014.984-5.925c.663-.648 1.219-1.126 1.543-1.45l.57-.417z" fill="#54372B"/><path d="M93.21 22.2c-3.704 2.917-5.725 6.45-8.857 10.292a26.43 26.43 0 00-6.172 12.652 55.274 55.274 0 01-1.45 8.548c-1.682 5.045-6.99 8.363-11.156 11.572-4.166 3.21-8.363 5.709-13.593 6.326a73.62 73.62 0 009.72-8.44 30.503 30.503 0 006.172-12.05c1.204-3.965 1.003-8.332 2.639-12.22 2.052-4.845 6.711-8.147 10.985-11.202 3.78-2.669 7.082-4.937 11.711-5.477z" fill="#54372B"/><path d="M26.863 36.767a35.485 35.485 0 00-10.569 2.484A18.592 18.592 0 005.571 61.639a35.38 35.38 0 004.628 9.735C14.29 77.47 21 82.761 29.085 86.62c8.085 3.857 16.401 5.878 23.715 5.276 1.35-.116 2.69-.323 4.011-.617a21.6 21.6 0 0014.72-30.457 30.169 30.169 0 00-2.006-3.58c-4.073-6.094-10.8-11.371-18.9-15.229-8.101-3.857-16.449-5.863-23.762-5.245z" fill="#F8E4BE"/><path d="M12.313 43.586c7.514-5.647 17.482-6.511 26.43-4.428a51.827 51.827 0 0126.662 15.26 26.23 26.23 0 016.172 11.726C69.355 57.61 62.042 51.146 54.76 46.78c-8.625-5.184-19.086-8.903-29.316-7.715a29.392 29.392 0 00-13.13 4.521zm.987 5.431l.602.463a25.08 25.08 0 001.79 1.204 59.225 59.225 0 006.913 3.394c1.543.617 3.085 1.404 4.72 2.068a24.346 24.346 0 005.478 1.388c2.009.247 4.04.247 6.049 0a33.153 33.153 0 016.434 0 16 16 0 016.171 2.022 35.484 35.484 0 015.046 3.64c1.543 1.297 2.931 2.655 4.258 3.92a50.102 50.102 0 013.595 3.734 26.366 26.366 0 014.15 6.542c.371.864.618 1.543.772 2.037l.216.725-.262-.725a22.843 22.843 0 00-.88-1.96 28.112 28.112 0 00-4.382-6.28c-1.064-1.172-2.314-2.345-3.672-3.58-1.358-1.234-2.777-2.53-4.304-3.795a35.494 35.494 0 00-4.984-3.58 15.43 15.43 0 00-5.848-1.851c-2.078-.2-4.17-.2-6.249 0-2.05.25-4.122.25-6.171 0a21.602 21.602 0 01-5.632-1.543c-1.713-.74-3.21-1.543-4.629-2.206a48.166 48.166 0 01-6.773-3.75c-.772-.524-1.343-.987-1.728-1.296l-.68-.57z" fill="#54372B"/><path d="M11.233 49.82c3.58 3.085 7.422 4.366 11.804 6.696a26.23 26.23 0 0013.593 3.58 56.171 56.171 0 018.671-.232c5.277.694 9.55 5.262 13.516 8.718 3.965 3.456 7.221 7.113 8.826 12.112a75.045 75.045 0 00-10.153-7.9 30.535 30.535 0 00-13.022-3.734c-4.135-.417-8.378.632-12.498-.231-5.153-1.08-9.257-5-13.115-8.61-3.332-3.163-6.202-5.971-7.622-10.4z" fill="#54372B"/></svg>