<svg width="108" height="107" fill="none" xmlns="http://www.w3.org/2000/svg"><path d="M54.174 66.808a43.101 43.101 0 0015.857-2.854c4.952 5.514 13.597 6.271 13.597 6.271 9.432 5.003 8.808 9.31 9.81 13.73a3.49 3.49 0 006.057 1.534 17.91 17.91 0 003.192-5.831c6.026-19.663-4.358-25.577-4.358-25.577.317-22.742-19.94-23.806-19.94-23.806v.072c-6.772-10.845-24.235-10.343-24.235-10.343s-17.464-.502-24.247 10.343v-.072S9.702 31.298 10 54.01c0 0-10.384 5.954-4.359 25.576a18.067 18.067 0 003.203 5.832 3.478 3.478 0 006.046-1.535c1.023-4.42.389-8.727 9.821-13.73 0 0 8.645-.757 13.596-6.27a43.041 43.041 0 0015.868 2.925z" fill="#F8E4BE"/><path d="M78.308 48.25a24.982 24.982 0 003.437-10.343 19.1 19.1 0 00-.9-7.304 17.6 17.6 0 00-2.455-.369 16.513 16.513 0 012.138 7.796 24.421 24.421 0 01-2.22 10.22zM26.603 37.907A24.828 24.828 0 0030.04 48.25a24.554 24.554 0 01-2.23-10.23 16.666 16.666 0 012.138-7.796c-.826.065-1.646.188-2.455.368a19.1 19.1 0 00-.89 7.315zm71.184 21.76a18.303 18.303 0 002.107-4.358 9.101 9.101 0 00-1.565-1.299v-.44a18.783 18.783 0 01-5.207 11.11 20.828 20.828 0 004.665-5.013zM15.226 64.71A18.783 18.783 0 0110 53.6v.44a8.86 8.86 0 00-1.555 1.27 18.274 18.274 0 002.046 4.357 21.086 21.086 0 004.736 5.044zm84.801-4.378c2.159 3.581 2.517 7.97 2.046 12.052-.47 4.082-1.852 8.297-4.788 11.253a31.375 31.375 0 002.742-23.305zm-91.717 0a31.377 31.377 0 002.712 23.346c-2.947-2.966-4.307-7.161-4.788-11.253-.481-4.093-.072-8.522 2.077-12.093zm74.939-26.108a15.765 15.765 0 019.995 7.243 19.438 19.438 0 012.23 12.543c-.634-4.092-1.309-8.184-3.457-11.806a22.241 22.241 0 00-8.768-7.98zm-58.15 0a22.169 22.169 0 00-8.768 7.97c-2.158 3.631-2.834 7.724-3.468 11.816a19.438 19.438 0 012.25-12.543 15.736 15.736 0 019.986-7.243zm7.253-2.404a16.369 16.369 0 015.944-6.026 28.89 28.89 0 019.801-3.407c6.906-1.176 14.578-.46 20.87 2.783a17.002 17.002 0 017.029 6.65 19.54 19.54 0 00-6.66-5.054 32.934 32.934 0 00-9.208-2.578 40.666 40.666 0 00-19.878 2.046 19.633 19.633 0 00-7.898 5.586zm3.151 2.25c-.266.072-.47.43-.706 1.28l-.347 1.268.593-.778c.736-.992.972-1.902.46-1.77z" fill="#54372B"/><path d="M69.57 31.984c-.163.368-.132.521.165.91.685.89.92-.123.255-1.023-.184-.266-.276-.235-.42.113zm-16.122.256c.225-.075.459-.12.695-.134.256 0 .205-.102-.235-.511-.44-.41-.686-.491-.788.276-.05.45-.02.491.328.369zM18.244 44.588c.226-.074.46-.12.696-.133.256 0 .205-.103-.245-.512-.45-.409-.676-.501-.778.276-.051.45-.02.492.327.369zm-2.301 4.03c0 .205.081.379.194.379.112 0 .286-.174.368-.379.082-.204 0-.368-.194-.368a.379.379 0 00-.368.368zm72.637 2.19c0 .204.081.378.194.378.112 0 .286-.174.368-.378.082-.205 0-.368-.194-.368a.378.378 0 00-.369.368zm-55.215-9.76c-.061-.43-.143-.46-.542-.205l-.47.307.408.317c.512.4.706.266.604-.42zM19.994 51.687c-.062-.419-.143-.45-.542-.204l-.471.307.41.317c.51.399.705.266.603-.42zm46.671-22.23a.491.491 0 00.9 0c.164-.256.134-.348-.204-.634a1.453 1.453 0 00-.593-.328c-.276-.061-.328.522-.103.962zM88.456 47.38a.49.49 0 00.9 0c.154-.245.123-.337-.214-.624a1.34 1.34 0 00-.594-.327c-.266.02-.327.552-.092.951zM15.8 52.619c.235.286.51 0 .429-.471a.42.42 0 00-.389-.317c-.337 0-.358.399-.04.788zM56.527 26.03c.256.235.44.276.501.102.062-.174-.297-.491-.511-.399-.215.092-.174.133.01.297zM21.6 44.434c.256.236.44.266.501.092.062-.174-.296-.49-.521-.388-.225.102-.164.122.02.296zm27.725-10.128c.347.368.388.358.624-.205.235-.562.143-1.023-.266-1.023-.41 0-.696.85-.358 1.228zm18.476 2.977a.42.42 0 00-.184.379c0 .122.184.194.45.194s.44-.123.133-.552c-.143-.205-.174-.205-.399-.02zm-15.08-10.537c.047.233.13.457.246.665.245.44.552.296.706-.307.153-.604.122-.696-.481-.737-.42.02-.502.02-.47.379zm4.88 6.731c-.307 0-.286.42 0 .624.287.205.317.144.358 0 .041-.143-.133-.624-.358-.624zm-33.832 4.41c-.317 0-.297.42 0 .624.297.204.317.143.358 0 .04-.143-.143-.624-.358-.624zm-8.901 17.739c-.511 0-.808.553-.43.798.38.246.666.092.778-.399a.328.328 0 00-.348-.399zm76.361-3.356c-.512 0-.819.553-.43.799.389.245.665.092.778-.389a.328.328 0 00-.348-.41zm-73.537 2.691a.39.39 0 00-.368.338c0 .184.061.327.173.327.113 0 .277-.143.369-.327.092-.184.01-.338-.174-.338zM92.058 56.2a.378.378 0 00-.359.337c0 .174.062.327.174.327.113 0 .277-.153.358-.327.082-.174.01-.338-.173-.338zM60.855 27.482c.081.328.122.328.685 0 .563-.327.501-.573-.062-.593-.562-.02-.716.205-.623.593zM38.5 30.715a.48.48 0 01-.367.164c-.358 0-.481.102-.512.44-.03.337 0 .296.327.348l.481.102c.072 0 .154-.092.184-.225.031-.133.103-.256.164-.256.061 0 .082-.061.061-.143a.318.318 0 01.113-.276.276.276 0 00.123-.215c-.031-.174-.43-.092-.573.061zm22.242.154c-.338-.082-.43.092-.246.47a.45.45 0 00.706.184c.195-.143-.05-.562-.46-.654zM45.887 29.57a.613.613 0 01-.399-.134.205.205 0 00-.255 0c-.123.092 0 .481.255 1.105.062.123.256.184.491.154.236-.031.379-.113.287-.584-.092-.47-.154-.542-.379-.542zm46.805 20.133a.613.613 0 01-.4-.123.205.205 0 00-.255 0c-.123.092 0 .48.256 1.105.061.123.256.184.49.153.236-.03.38-.112.287-.583-.092-.47-.153-.552-.378-.552zM48.813 27.666c-.49 0-.501.072-.092.696.41.624 1.023.655.9.256-.102-.573-.43-.951-.808-.951zm-2.465 6.774a.194.194 0 00.225.153l.552-.133.4-.082-.267-.256c-.501-.48-1.095-.276-.91.317zm-22.139 7.457a.194.194 0 00.225.153l.563-.133.388-.081-.266-.256c-.501-.481-1.094-.276-.91.317zm59.981-1.473a.194.194 0 00.225.153c.082 0 .338-.082.553-.133l.399-.082-.266-.255c-.501-.481-1.095-.277-.91.317zm-23.305-4.062c.328.317.44.297.727-.112.286-.41.163-.696-.307-.696-.471 0-.716.522-.42.808zM41.56 32.137c-.512 0-.532.726 0 1.514s.828.9.91.286c.082-.613-.521-1.8-.91-1.8zm42.344 11.407c-.512 0-.532.727 0 1.514.532.788.829.9.91.287.082-.614-.521-1.8-.91-1.8zm-42.549-6.742a.768.768 0 01-.46-.072c-.164-.184-.379.103-.317.44.017.14.07.275.153.39.143.112.276.07.47-.134a.931.931 0 01.4-.225.194.194 0 00.163-.225c-.05-.153-.112-.184-.409-.174zM25.344 45.59a.747.747 0 01-.46-.072c-.174-.184-.379.113-.327.44.017.14.07.275.153.39.153.112.276.07.48-.124a.829.829 0 01.39-.235.174.174 0 00.163-.225c-.081-.153-.153-.184-.399-.174zm-4.297-5.248a.736.736 0 01-.46-.082c-.163-.174-.378.113-.317.44.01.14.06.275.143.389.154.112.287.082.481-.123a.9.9 0 01.358-.256.205.205 0 00.174-.235c-.01-.123-.082-.154-.378-.133zm53.568-5.013c0 .348.081.491.204.542.205.092.246.092.4 0 .153-.092-.134-1.023-.359-1.125-.225-.102-.297.02-.245.583zm-7.08-.757a.256.256 0 00-.153-.297c-.246-.122-.83.369-.727.614.102.246.767-.113.88-.317zm11.121 7.264c.122-.133.122-.215 0-.369a.645.645 0 00-.318-.194c-.194 0-.511.491-.46.706.051.215.522.123.778-.143zm-25.434-6.241c-.122 0-.276.256-.347.583-.072.328 0 .532.133.44.337-.235.511-1.023.214-1.023zm33.055 12.348c-.123 0-.286.266-.358.584-.071.317 0 .532.143.44.338-.185.502-1.024.215-1.024zm-62.887.532c-.122 0-.276.256-.348.573-.071.317 0 .532.133.44.338-.184.512-1.013.215-1.013zm14.477-9.811c.133 0 .235-.184.225-.409-.01-.225-.123-.389-.256-.389s-.225.174-.215.389c.01.215.112.41.245.41zm-17.832 9.208c.133 0 .225-.174.225-.4 0-.224-.123-.398-.256-.398s-.225.184-.215.399c.01.215.113.399.246.399zm36.911-18.784c.328.39.655.379.747 0 .092-.378-.46-.89-.787-.726-.328.164-.256.358.04.726zm30.61 13.259c.328.4.655.379.747 0 .092-.378-.46-.89-.788-.726-.327.164-.256.358.041.726zm-12.031-3.53c.245-.133.153-.296-.246-.409a.267.267 0 00-.368.154c-.072.133-.061.266 0 .296a.614.614 0 00.614-.04zm16.727 7.285c.245-.133.143-.297-.246-.41-.194-.05-.286 0-.378.154-.092.153-.062.266 0 .297a.636.636 0 00.624-.041zM71.044 37.15c0-.256-.153-.266-.47 0-.318.266-.154.767.327.767.092 0 .184 0 .194.082 0 .123.317.123.379 0 .061-.123-.051-.204-.174-.348a1.196 1.196 0 01-.256-.501zm6.629.071c.144.267.369.246.492-.06.122-.308-.246-.666-.533-.666-.286 0-.112.44.041.727zm-46.426-.337a.91.91 0 00.256-.552c0-.236 0-.246-.245 0a1.023 1.023 0 00-.266.552c-.01.194.04.205.255 0z" fill="#54372B"/><path d="M42.736 26.388c.952 4.849 1.811 9.708 2.65 14.578.962 5.606 1.77 11.325 8.85 11.325 7.079 0 7.908-5.678 8.839-11.253.808-4.88 1.647-9.74 2.567-14.6-.49 4.922-1.023 9.822-1.667 14.733-.767 6.138-2.046 12.42-9.74 12.41-7.693-.01-8.951-6.251-9.75-12.43-.644-4.973-1.248-9.873-1.749-14.763z" fill="#54372B"/></svg>