<svg width="108" height="107" fill="none" xmlns="http://www.w3.org/2000/svg"><path d="M104.516 66.06H4.544a1.046 1.046 0 00-.753 1.737c2.866 3.022 9.716 8.922 19.737 9.079.267.006.521.115.711.303l2.75 2.75c.196.194.459.303.733.304h53.616c.274-.001.537-.11.732-.303l2.75-2.751c.19-.188.445-.297.712-.303 10.02-.157 16.871-6.057 19.737-9.08a1.048 1.048 0 00-.198-1.556 1.043 1.043 0 00-.555-.18zm-.115-26.588c-.617-4.53-4.184-7.604-8.462-8.671a26.254 26.254 0 00-9.518-.324c0-1.475.073-2.657.073-3.431A1.046 1.046 0 0085.448 26H23.591a1.046 1.046 0 00-1.046 1.046c0 6.171.857 38.083 16.84 39.014h30.322a11.505 11.505 0 007.688-3.64 35.7 35.7 0 0011.37-2.52 29.825 29.825 0 0011.275-8.117c2.803-3.337 4.978-7.834 4.361-12.311zm-6.872 7.583a23.408 23.408 0 01-9.13 8.441 30.106 30.106 0 01-8.107 2.94c2.75-4.823 4.299-11.193 5.146-17.029a10.136 10.136 0 004.445-2.897 5.69 5.69 0 016.674-1.496c4.058 2.03 2.792 6.893.972 10.041z" fill="#F8E4BE"/><path d="M80.658 59.418a29.883 29.883 0 0014.821-8.263 16.642 16.642 0 004.477-8.315c.512-3.138-.9-6.067-4.048-6.966a6.642 6.642 0 00-4.968.638 20.912 20.912 0 00-3.138 2.49c1.778-1.758 3.274-3.463 5.951-3.693a6.118 6.118 0 016.632 5.125c.491 3.295-1.224 6.694-3.138 9.246a25.165 25.165 0 01-7.688 6.548 27.643 27.643 0 01-8.901 3.19zM25.578 76.54l9.047-.073 19.874-.063 19.873.063 9.047.073-9.047.074H34.625l-9.047-.074zM5.642 68.12l48.888-.135 48.888.136-48.888.125-48.888-.125zm29.695-6.788c-3.985-4.079-5.617-10.093-6.904-15.49a84.626 84.626 0 01-2.091-15.02l3.137-.147c.366 10.397 1.276 21.108 5.858 30.657z" fill="#54372B"/></svg>