<svg width="107" height="107" fill="none" xmlns="http://www.w3.org/2000/svg"><path d="M82.916 11.947h-.912a1.1 1.1 0 01-1.023-.747l-1.703-5.122a4.33 4.33 0 00-3.98-2.617H30.77a4.397 4.397 0 00-3.99 2.617L25.086 11.2a1.1 1.1 0 01-1.023.747h-.912a2.572 2.572 0 000 5.145h.704a1.099 1.099 0 011.099.989L32.45 98.62s0 5.419 20.578 5.419c20.577 0 20.61-5.42 20.61-5.42l7.496-80.538a1.1 1.1 0 011.1-.99h.703a2.572 2.572 0 000-5.144h-.022z" fill="#F8E4BE"/><path d="M30.121 38.262l3.155 33.988a208.623 208.623 0 0039.571 0l3.144-33.988c-15.225 2-30.645 2-45.87 0zm40.594-20.126l-3.88.165c-1.374.055-2.836.088-4.342.132-3.012.076-6.222.12-9.443.12-3.22 0-6.43 0-9.442-.12-1.495 0-2.957-.077-4.33-.132l-3.892-.165c-2.396-.121-4.397-.22-5.793-.319l-2.198-.132 2.198.176c1.385.12 3.375.286 5.782.418l3.88.22 4.397.175c3.023.088 6.244.143 9.464.154 3.221.011 6.453-.066 9.476-.154a234.42 234.42 0 008.222-.395 275.38 275.38 0 005.782-.418l2.198-.176-2.198.132c-1.474.099-3.474.198-5.881.319zm-35.318-6.738c4.815.209 11.234.384 17.654.406 6.419.022 12.85-.197 17.664-.406a263.69 263.69 0 005.803-.308l2.199-.132s-3.199.154-8.013.319c-4.815.165-11.234.308-17.653.286-6.42-.022-12.84-.11-17.588-.286-4.748-.176-8.013-.319-8.013-.319l2.198.132c1.341.088 3.32.209 5.75.308z" fill="#54372B"/><path d="M59.58 48.826a11.907 11.907 0 00-2.32-2.87 6.331 6.331 0 00-8.43 0 12.257 12.257 0 00-2.298 2.859 18.049 18.049 0 000 16.059c.238.382.498.75.78 1.1a7.32 7.32 0 0011.498 0c.285-.352.55-.719.792-1.1a18.049 18.049 0 000-16.06l-.022.012z" fill="#F8E4BE"/><path d="M55.348 45.374a10.804 10.804 0 015.21 7.31 17.588 17.588 0 01-.747 10.64 8.793 8.793 0 01-2.66 3.517c2.275-1.901 3.176-5.067 3.451-7.903a16.356 16.356 0 00-1.967-10.277 9.993 9.993 0 00-3.287-3.287zm-1.495 1.099l-.055.264c0 .169-.033.41-.099.725a19.388 19.388 0 000 2.616c0 .54 0 1.1.066 1.737.05.644.18 1.279.385 1.89.22.654.519 1.278.89 1.859.383.62.707 1.275.967 1.956.244.706.341 1.454.286 2.199-.06.702-.186 1.397-.374 2.077-.164.66-.373 1.286-.571 1.88-.198.593-.385 1.154-.605 1.648a8.796 8.796 0 01-1.901 2.737l-.187.176.176-.186c.172-.178.333-.365.483-.561.52-.697.95-1.458 1.275-2.264.198-.495.374-1.1.55-1.65.176-.549.363-1.22.528-1.879a12.08 12.08 0 00.351-2.033 5.112 5.112 0 00-.296-2.067 11.457 11.457 0 00-.924-1.924 9.187 9.187 0 01-.901-1.912 7.812 7.812 0 01-.352-1.946v-1.758c-.02-.879.027-1.757.143-2.628.033-.244.08-.486.143-.725l.022-.23z" fill="#54372B"/><path d="M53.281 45.956a20.89 20.89 0 00-.319 4.595 9.046 9.046 0 00.913 4.694c.52.834.972 1.71 1.352 2.616.56 1.726-.209 3.704-.682 5.419a9.222 9.222 0 01-2.407 4.485 26 26 0 00.924-4.265 10.477 10.477 0 00-.77-4.54 38.171 38.171 0 01-1.77-3.858 9.761 9.761 0 01.704-5.276 8.321 8.321 0 012.055-3.87z" fill="#54372B"/><path d="M53.05 71.788c-9.167 0-16.63-6.815-16.63-15.202s7.463-15.213 16.63-15.213c9.168 0 16.642 6.826 16.642 15.213S62.23 71.788 53.051 71.788zm0-29.678c-8.793 0-15.861 6.485-15.861 14.443 0 7.958 7.112 14.433 15.861 14.433 8.75 0 15.873-6.475 15.873-14.433S61.8 42.143 53.05 42.143v-.034z" fill="#F8E4BE"/></svg>