<svg width="19" height="14" fill="none" xmlns="http://www.w3.org/2000/svg"><path fill-rule="evenodd" clip-rule="evenodd" d="M7.098 11.235a6.06 6.06 0 00-.153-.006c-.333-.01-.782-.01-1.407-.01-.626 0-1.074 0-1.407.01a9.883 9.883 0 00-.153.006 1.578 1.578 0 003.12 0zm-1.56 2.238a2.48 2.48 0 002.48-2.48c0-.2 0-.34-.065-.44-.152-.236-.67-.236-2.415-.236-2.48 0-2.48 0-2.48.676a2.48 2.48 0 002.48 2.48zm7.519-9.92h2.175v5.411h-.902V4.455h-.53l-1.28 6.625-.886-.171 1.424-7.354zm3.279 8.99a1.577 1.577 0 001.254-1.846l.885-.17a2.48 2.48 0 11-4.871.933l.885-.17a1.58 1.58 0 001.847 1.254z" fill="#F8E4BE"/><path fill-rule="evenodd" clip-rule="evenodd" d="M17.203 9.33a2.03 2.03 0 00-3.19 1.563l3.896-.688a2.03 2.03 0 00-.706-.874zM15.53 8.107a2.93 2.93 0 013.256 1.864c.205.551-.207 1.033-.67 1.114l-3.997.705c-.463.082-1.014-.23-1.01-.818a2.93 2.93 0 012.421-2.865zm-7.06-2.75H4.41a.45.45 0 00-.451.451v.902h4.96v-.902a.45.45 0 00-.451-.45zm-4.06-.901a1.353 1.353 0 00-1.353 1.352v1.353a.45.45 0 00.451.45H9.37a.45.45 0 00.45-.45V5.808a1.353 1.353 0 00-1.35-1.352H4.41z" fill="#F8E4BE"/><path fill-rule="evenodd" clip-rule="evenodd" d="M8.469 7.612H5.35c-1.791 0-3.225 1.188-3.567 2.705h6.635a.08.08 0 00.05-.014V7.612zM5.35 6.71C2.84 6.71.803 8.639.803 11.019c0 .11.095.2.212.2H8.42c.525 0 .951-.404.951-.902V7.071a.37.37 0 00-.38-.361H5.35zm9.43-4.96h-.902a.902.902 0 000 1.804h.902V1.75zm-.9-.902a1.804 1.804 0 000 3.608h1.527a.277.277 0 00.277-.278V1.126a.277.277 0 00-.277-.278H13.88z" fill="#F8E4BE"/><path d="M10.428 1.3l2.221.39-.156.888-2.22-.39.155-.889z" fill="#F8E4BE"/><path fill-rule="evenodd" clip-rule="evenodd" d="M13.429 11.219H8.018v-.902h5.41v.902zm-.902-2.254H8.469v-.902h4.058v.902z" fill="#F8E4BE"/></svg>