<svg width="24" height="24" fill="none" xmlns="http://www.w3.org/2000/svg"><path d="M19.66 12.366l1.143-6.263a.572.572 0 00-.314-.612.544.544 0 00-.239-.053H4.969L4.48 2.765a1.303 1.303 0 00-1.284-1.079H1.5a.563.563 0 100 1.125h1.697a.187.187 0 01.178.15l2.597 14.27a2.438 2.438 0 103.581.58h5.644a2.438 2.438 0 102.053-1.125H7.012l-.478-2.625h11.1a2.063 2.063 0 002.025-1.696zM8.811 19.125a1.313 1.313 0 11-2.625 0 1.313 1.313 0 012.625 0zm9.75 0a1.313 1.313 0 11-2.625 0 1.313 1.313 0 012.626 0zM5.175 6.562h14.4l-1.022 5.607a.938.938 0 01-.919.768H6.338L5.175 6.564z" fill="#F8E4BE"/></svg>